<svg width="413" height="873" viewBox="0 0 413 873" fill="none" xmlns="http://www.w3.org/2000/svg">
<rect x="9.5" y="5.5" width="394" height="862" rx="14.5" stroke="url(#paint0_linear_150_42)" stroke-width="11"/>
<rect x="12" y="8" width="389" height="857" rx="12" stroke="url(#paint1_linear_150_42)" stroke-width="6"/>
<rect x="197" y="15" width="20" height="20" rx="10" fill="#313131"/>
<rect x="200" y="18" width="14" height="14" rx="7" fill="url(#paint2_linear_150_42)"/>
<rect x="202" y="20" width="10" height="10" rx="5" fill="#070707"/>
<path d="M409 216H410C411.657 216 413 217.343 413 219V278C413 279.657 411.657 281 410 281H409V216Z" fill="#3E3E3E"/>
<path d="M4 247H3C1.34315 247 0 245.657 0 244L0 185C0 183.343 1.34315 182 3 182H4L4 247Z" fill="#3E3E3E"/>
<path d="M4 316H3C1.34315 316 0 314.657 0 313L0 254C0 252.343 1.34315 251 3 251H4L4 316Z" fill="#3E3E3E"/>
<defs>
<linearGradient id="paint0_linear_150_42" x1="-93.5" y1="476" x2="515" y2="293.5" gradientUnits="userSpaceOnUse">
<stop stop-color="#323232"/>
<stop offset="0.425" stop-color="#3A3A3A"/>
<stop offset="1" stop-color="#212121"/>
</linearGradient>
<linearGradient id="paint1_linear_150_42" x1="-93.5" y1="476" x2="515" y2="293.5" gradientUnits="userSpaceOnUse">
<stop/>
<stop offset="0.425" stop-color="#333333"/>
<stop offset="1" stop-color="#4E4E4E"/>
</linearGradient>
<linearGradient id="paint2_linear_150_42" x1="194.5" y1="30" x2="219" y2="22.5" gradientUnits="userSpaceOnUse">
<stop stop-color="#797979"/>
<stop offset="1"/>
</linearGradient>
</defs>
</svg>
